Rogue Male (1977)


Director: Clive Donner
Writers: Frederic Raphael, Geoffrey Household (novel)
Stars: Peter O'Toole, John Standing and Alastair Sim 
Genres: Drama | Thriller 

Early in 1939 Sir Robert Thorndyke takes aim at Adolf Hitler with a high powered rifle, but the shot misses its mark. Captured and tortured by the Gestapo and left for dead, Sir Robert makes his way back to England where he discovers the Gestapo has followed him. Knowing that his government would turn him over to German authorities, Sir Robert goes underground in his battle with his pursuers.
 
http://bayimg.com/aAbgmaAee

General
Complete name                            : Rogue Male (1976) DVDRip XviD.avi
Format                                   : AVI
Format/Info                              : Audio Video Interleave
File size                                : 699 MiB
Duration                                 : 1h 42mn
Overall bit rate                         : 949 Kbps
Writing application                      : VirtualDubMod 1.5.10.1 (build 2366/release)
Writing library                          : VirtualDubMod build 2366/release

Video
ID                                       : 0
Format                                   : MPEG-4 Visual
Format settings, BVOP                    : 1
Format settings, QPel                    : No
Format settings, GMC                     : No warppoints
Format settings, Matrix                  : Default (H.263)
Muxing mode                              : Packed bitstream
Codec ID                                 : DX50
Codec ID/Hint                            : DivX 5
Duration                                 : 1h 42mn
Bit rate                                 : 842 Kbps
Width                                    : 512 pixels
Height                                   : 384 pixels
Display aspect ratio                     : 4:3
Frame rate                               : 29.970 fps
Color space                              : YUV
Chroma subsampling                       : 4:2:0
Bit depth                                : 8 bits
Scan type                                : Progressive
Compression mode                         : Lossy
Bits/(Pixel*Frame)                       : 0.143
Stream size                              : 620 MiB (89%)
Writing library                          : DivX 5.1.1 (Maupiti) (UTC 2003-11-19)

Audio
ID                                       : 1
Format                                   : MPEG Audio
Format version                           : Version 1
Format profile                           : Layer 3
Mode                                     : Joint stereo
Mode extension                           : Intensity Stereo
Codec ID                                 : 55
Codec ID/Hint                            : MP3
Duration                                 : 1h 42mn
Bit rate mode                            : Constant
Bit rate                                 : 96.0 Kbps
Channel(s)                               : 2 channels
Sampling rate                            : 32.0 KHz
Compression mode                         : Lossy
Stream size                              : 70.7 MiB (10%)
Alignment                                : Aligned on interleaves
Interleave, duration                     : 36 ms (1.08 video frame)
Interleave, preload duration             : 504 ms
